<?xml version="1.0" encoding="UTF-8"?>
<svg id="Layer_1" xmlns="http://www.w3.org/2000/svg" version="1.1" viewBox="0 0 100 100">
  <!-- Generator: Adobe Illustrator 30.0.0, SVG Export Plug-In . SVG Version: 2.1.1 Build 123)  -->
  <path d="M82.76,66.89c-.37.75-.86,1.37-1.74,1.52l-8.12.07c-.68,2.11-2.34,3.69-4.46,4.31v6.96c-.29,1.77-2.47,2.48-3.67,1.09-.19-.22-.57-.98-.57-1.22v-6.46h-3.97v6.85c0,.08-.27.55-.35.67-.94,1.41-3.15,1.08-3.68-.48-.03-.09-.19-.79-.19-.83v-6.21h-3.97v6.85c0,.8-1.35,1.63-2.11,1.61s-1.99-.85-1.99-1.61v-6.85h-3.97v6.21s-.16.75-.19.83c-.53,1.56-2.74,1.88-3.68.48-.08-.12-.35-.59-.35-.67v-6.85h-3.97v6.46c0,.24-.39,1-.57,1.22-1.18,1.38-3.39.71-3.65-1.09v-6.96c-2.13-.61-3.79-2.2-4.47-4.31l-8-.06c-1.93-.23-2.57-2.78-.9-3.84.14-.09.92-.38,1.03-.38h7.61v-28.41h-7.61c-.1,0-.89-.29-1.03-.38-1.67-1.06-1.03-3.61.9-3.84l8-.06c.7-2.11,2.31-3.69,4.46-4.31v-6.96c.28-1.8,2.46-2.49,3.67-1.09.19.22.57.98.57,1.22v6.46h3.97v-6.85c0-.08.27-.55.35-.67.94-1.41,3.15-1.08,3.68.48.03.09.19.79.19.83v6.21h3.97v-6.85c0-.8,1.35-1.63,2.11-1.61s1.99.85,1.99,1.61v6.85h3.97v-6.21s.16-.75.19-.83c.53-1.56,2.74-1.88,3.68-.48.08.12.35.59.35.67v6.85h3.97v-6.46c0-.24.39-1,.57-1.22,1.19-1.39,3.38-.69,3.65,1.09v6.96c2.13.61,3.79,2.2,4.47,4.31l8.12.07c.87.15,1.37.77,1.74,1.52v1.02c-.46,1-.99,1.52-2.13,1.65-2.21.24-7.23.23-9.45.01-.96-.09-1.97-.63-2.18-1.66-.16-.76.11-1.18-.39-1.92-.42-.63-1.17-1.06-1.93-1.15l-33.13-.02c-1.07,0-2.36.89-2.49,1.99l.1,34.33c.35.85,1.05,1.3,1.92,1.54l33.5.04c.99-.09,1.88-.64,2.26-1.57l.11-28.3c.2-1.48,1.88-2.34,3.18-1.54.31.19,1.03,1.06,1.03,1.4v25.27h7.61c.1,0,.89.29,1.03.38.44.28.72.84.96,1.28v1.02Z"/>
  <path d="M82.76,41.3v1.02c-.3.64-.7,1.22-1.41,1.47-.91.32-4.58.31-5.5,0-1.95-.64-1.67-3.78.45-4.04.92-.11,3.94-.12,4.83.03s1.25.81,1.63,1.5Z"/>
  <path d="M82.76,57.68v1.02c-.38.7-.77,1.36-1.63,1.5s-3.91.15-4.83.03c-2.11-.26-2.4-3.4-.45-4.04.92-.3,4.6-.31,5.5,0,.71.25,1.11.83,1.41,1.47Z"/>
  <path d="M82.76,49.49v1.02c-.27.6-.81,1.37-1.5,1.51-.75.15-4.27.13-5.08.02-2.18-.31-2.3-3.85.24-4.09.92-.09,4.02-.13,4.84.03.69.14,1.24.9,1.5,1.51Z"/>
  <path d="M18.87,39.79c.73-.12,4.64-.13,5.25.07,1.82.59,1.8,3.42-.06,3.96-.95.28-4.6.29-5.5-.07-1.93-.76-1.62-3.64.31-3.96Z"/>
  <path d="M19.39,56.05c1.07-.13,4.1-.16,5.03.28,1.66.78,1.27,3.61-.59,3.9-.91.14-3.77.11-4.73,0-2.42-.26-2.63-3.82.29-4.19Z"/>
  <path d="M18.74,47.98c.82-.17,3.91-.12,4.84-.03,2.51.24,2.41,3.69.35,4.07-.69.13-4.66.13-5.28-.03-1.9-.5-1.81-3.62.1-4.01Z"/>
  <path d="M43.19,39.03c.76-.03,1.63.49,1.93,1.2l6.93,17.77c.72,1.76-.89,3.52-2.69,2.82-1.57-.61-1.43-2.77-2.19-3.83-.09-.12-.15-.2-.31-.2l-7.41.02c-.79,1.02-.85,3.18-2.04,3.85-1.84,1.04-3.67-.59-3.07-2.56l6.89-17.68c.36-.81,1.05-1.34,1.95-1.37ZM41.04,52.69h4.35l-2.24-5.63-2.11,5.63Z"/>
  <path d="M61.01,43.22v13.56c1.65-.3,3.29.79,2.91,2.59-.24,1.14-1.29,1.56-2.33,1.63-1.42.11-4.26.15-5.64,0-3.22-.36-2.33-4.87.83-4.22v-13.56c-3.16.64-4.05-3.86-.83-4.22,1.38-.16,4.22-.11,5.64,0,3.65.27,2.83,4.81-.58,4.23Z"/>
</svg>