<?xml version="1.0" encoding="UTF-8"?>
<svg id="Group_187" xmlns="http://www.w3.org/2000/svg" xmlns:xlink="http://www.w3.org/1999/xlink" version="1.1" viewBox="0 0 120 58.08">
  <!-- Generator: Adobe Illustrator 29.5.1, SVG Export Plug-In . SVG Version: 2.1.0 Build 141)  -->
  <defs>
    <style>
      .st0 {
        fill: none;
      }

      .st1 {
        fill: #fff;
      }

      .st2 {
        clip-path: url(#clippath);
      }
    </style>
    <clipPath id="clippath">
      <rect class="st0" y="0" width="120" height="58.08"/>
    </clipPath>
  </defs>
  <g class="st2">
    <g id="Group_186">
      <path id="Path_1014" class="st1" d="M106.59,25.92c-.33-.09-.66-.13-1-.14-.38,0-.76.08-1.11.26-.32.17-.58.42-.76.73-.19.33-.28.71-.27,1.09-.01.31.06.62.2.9.13.22.32.39.55.51.3.14.61.25.93.34.25.07.48.16.71.27.17.08.27.25.27.44,0,.19-.08.36-.24.46-.16.11-.35.16-.55.16-.54-.03-1.05-.26-1.43-.64l-.69,1.3c.64.46,1.4.7,2.18.7.64.03,1.27-.18,1.76-.58.46-.43.69-1.04.64-1.66.02-.4-.12-.8-.4-1.09-.32-.29-.71-.5-1.13-.6l-.41-.12c-.18-.06-.36-.13-.52-.23-.13-.07-.2-.21-.2-.36,0-.16.08-.3.22-.38.14-.09.3-.14.47-.14.39,0,.77.15,1.07.41l.64-1.25c-.3-.16-.61-.29-.94-.37M98.48,25.95h-1.62v6.19h1.61v-2.53h2.33v2.53h1.61v-6.18h-1.61v2.39h-2.33v-2.39ZM96.28,27.31v-1.36h-4.29v1.36h1.33v4.82h1.61v-4.82h1.34ZM88.65,27.18c.19,0,.37.02.56.06.15.04.29.12.4.23.21.29.21.68,0,.97-.11.11-.25.19-.4.23-.18.04-.37.06-.56.06h-.16v-1.54h.16ZM90.83,29.27c.2-.16.36-.38.46-.62.11-.25.16-.53.16-.8.01-.37-.08-.74-.28-1.07-.18-.29-.45-.51-.76-.63-.35-.14-.73-.21-1.12-.2h-2.42v6.19h1.61v-2.38h.01l1.52,2.38h2.01l-1.95-2.54c.27-.04.52-.16.74-.33M83.56,27.53c.26.14.48.35.64.6.15.24.24.52.24.8,0,.33-.08.66-.24.94-.15.27-.37.5-.64.66-.54.32-1.22.32-1.76,0-.27-.16-.49-.39-.64-.66-.16-.29-.24-.61-.24-.94,0-.28.08-.56.24-.8.16-.25.38-.46.64-.6.54-.31,1.21-.31,1.75,0M81.4,25.98c-.41.15-.78.38-1.11.66-.32.28-.58.63-.76,1.01-.19.4-.28.83-.28,1.27,0,.47.08.93.25,1.36.33.83.98,1.48,1.82,1.8.88.33,1.86.33,2.74,0,.83-.32,1.49-.97,1.81-1.8.17-.44.26-.9.25-1.37,0-.44-.09-.87-.28-1.27-.18-.39-.44-.73-.76-1.01-.32-.29-.7-.51-1.11-.66-.83-.31-1.75-.31-2.58,0M69.72,25.95l1.85,6.19h1.64l1.22-3.58h.02l1.09,3.58h1.65l1.99-6.19h-1.68l-1.17,4h-.01l-1.22-4h-1.29l-1.3,4h-.02l-1.08-4h-1.68ZM66.29,25.95v6.19h3.55v-1.36h-1.94v-4.82h-1.61ZM62.98,27.53c.26.14.48.35.64.6.15.24.24.52.24.8,0,.33-.08.66-.24.94-.15.27-.37.5-.64.66-.54.32-1.22.32-1.76,0-.27-.16-.49-.39-.64-.66-.16-.29-.24-.61-.24-.94,0-.28.08-.56.24-.8.16-.25.38-.46.64-.6.54-.31,1.21-.31,1.75,0M60.82,25.98c-.41.15-.78.38-1.11.66-.32.28-.58.63-.76,1.01-.19.4-.28.83-.28,1.27,0,.47.08.93.25,1.36.33.83.98,1.48,1.82,1.8.88.33,1.86.33,2.74,0,.41-.16.78-.4,1.1-.71.31-.31.56-.68.72-1.09.17-.44.26-.9.25-1.37,0-.44-.09-.87-.28-1.27-.18-.39-.44-.73-.76-1.01-.32-.29-.7-.51-1.1-.66-.83-.31-1.75-.31-2.58,0M55.68,27.53c.26.14.48.35.64.6.15.24.24.52.24.8,0,.33-.08.66-.24.94-.15.27-.37.5-.64.66-.54.32-1.22.32-1.76,0-.27-.16-.49-.39-.64-.66-.16-.29-.24-.61-.24-.94,0-.28.08-.56.24-.8.16-.25.38-.46.64-.6.54-.31,1.21-.31,1.75,0M53.51,25.98c-.41.15-.78.37-1.11.66-.32.28-.58.63-.76,1.01-.19.4-.28.83-.28,1.27,0,.47.08.93.25,1.36.33.83.99,1.48,1.82,1.8.88.33,1.86.33,2.74,0,.83-.32,1.49-.97,1.81-1.8.17-.44.26-.9.25-1.37,0-.44-.09-.87-.28-1.27-.18-.39-.44-.73-.76-1.01-.32-.29-.7-.51-1.1-.66-.83-.31-1.75-.31-2.58,0M41.83,25.95l1.85,6.19h1.64l1.22-3.58h.02l1.09,3.58h1.65l1.99-6.19h-1.68l-1.17,4h-.01l-1.22-4h-1.29l-1.3,4h-.02l-1.08-4h-1.67Z"/>
      <path id="Path_1015" class="st1" d="M12.22,42.04h26.23v-26.01H12.22v26.01ZM30.08,34.41h-2.84l-1.87-6.2h-.03l-2.1,6.2h-2.83l-3.19-10.71h2.89l1.86,6.91h.03l2.24-6.91h2.22l2.1,6.91h.03l2.02-6.91h2.9l-3.42,10.71Z"/>
    </g>
  </g>
</svg>